<?xml version="1.0" encoding="utf-8"?>
<!-- Generator: Adobe Illustrator 22.0.0, SVG Export Plug-In . SVG Version: 6.00 Build 0)  -->
<svg version="1.0" id="Layer_1" xmlns="http://www.w3.org/2000/svg" xmlns:xlink="http://www.w3.org/1999/xlink" x="0px" y="0px"
	 viewBox="0 0 100 100" enable-background="new 0 0 100 100" xml:space="preserve">
<g>
	<g>
		<g>
			<path fill="#78B400" d="M15.8,20.8v60.5c0,3.3,2.3,6,5.1,6c2.8,0,5.1-2.7,5.1-6V20.8H15.8z"/>
			<path fill="#78B400" d="M27.5,20.8v60.5c0,3.3,2.3,6,5.1,6c2.8,0,5.1-2.7,5.1-6V20.8H27.5z"/>
			<path fill="#78B400" d="M39.2,20.8v60.5c0,3.3,2.3,6,5.1,6c2.8,0,5.1-2.7,5.1-6V20.8H39.2z"/>
			<path fill="#78B400" d="M50.9,20.8v60.5c0,3.3,2.3,6,5.1,6c2.8,0,5.1-2.7,5.1-6V20.8H50.9z"/>
			<path fill="#78B400" d="M62.6,20.8v60.5c0,3.3,2.3,6,5.1,6c2.8,0,5.1-2.7,5.1-6V20.8H62.6z"/>
			<path fill="#78B400" d="M74.3,20.8v60.5c0,3.3,2.3,6,5.1,6c2.8,0,5.1-2.7,5.1-6V20.8H74.3z"/>
		</g>
		<g>
			<path opacity="0.2" fill="#78B400" d="M25.9,81.3V20.8h-5.1v66.5C23.7,87.3,25.9,84.6,25.9,81.3z"/>
			<path opacity="0.2" fill="#78B400" d="M37.6,81.3V20.8h-5.1v66.5C35.4,87.3,37.6,84.6,37.6,81.3z"/>
			<path opacity="0.2" fill="#78B400" d="M49.3,81.3V20.8h-5.1v66.5C47.1,87.3,49.3,84.6,49.3,81.3z"/>
			<path opacity="0.2" fill="#78B400" d="M61,81.3V20.8H56v66.5C58.8,87.3,61,84.6,61,81.3z"/>
			<path opacity="0.2" fill="#78B400" d="M72.7,81.3V20.8h-5.1v66.5C70.5,87.3,72.7,84.6,72.7,81.3z"/>
			<path opacity="0.2" fill="#78B400" d="M84.4,81.3V20.8h-5.1v66.5C82.2,87.3,84.4,84.6,84.4,81.3z"/>
		</g>
	</g>
	<rect x="13.6" y="13.8" fill="#FFDC00" width="73" height="10.2"/>
	<g>
		<path fill="#00506E" d="M29.7,15.5h3.8c0.7,0,1.2,0.1,1.6,0.4c0.4,0.3,0.6,0.7,0.6,1.2c0,0.3,0,0.5-0.1,0.7
			c-0.1,0.2-0.2,0.3-0.4,0.4c-0.1,0.1-0.3,0.2-0.4,0.3c-0.2,0.1-0.3,0.1-0.4,0.1v0.1c0.1,0,0.3,0,0.4,0.1c0.2,0,0.3,0.1,0.5,0.2
			c0.2,0.1,0.3,0.2,0.4,0.4c0.1,0.2,0.2,0.4,0.2,0.7s-0.1,0.6-0.2,0.8c-0.1,0.2-0.3,0.4-0.5,0.5c-0.2,0.1-0.4,0.2-0.7,0.3
			c-0.3,0.1-0.6,0.1-0.9,0.1h-3.8v-1.3h0.5v-3.6h-0.5V15.5z M32.8,18.2c0.2,0,0.3,0,0.3-0.1c0.1-0.1,0.1-0.2,0.1-0.4v-0.3
			c0-0.2,0-0.3-0.1-0.4c-0.1-0.1-0.2-0.1-0.3-0.1h-0.4v1.3H32.8z M32.9,20.4c0.2,0,0.3,0,0.3-0.1c0.1-0.1,0.1-0.2,0.1-0.4v-0.4
			c0-0.2,0-0.3-0.1-0.4c-0.1-0.1-0.2-0.1-0.3-0.1h-0.5v1.4H32.9z"/>
		<path fill="#00506E" d="M36,15.5h3.2v1.3h-0.5v3.6h0.5v1.3H36v-1.3h0.5v-3.6H36V15.5z"/>
		<path fill="#00506E" d="M45.5,18.6c0,0.6-0.1,1.1-0.2,1.5c-0.1,0.4-0.3,0.7-0.6,1c-0.3,0.3-0.6,0.4-1,0.6
			c-0.4,0.1-0.8,0.2-1.3,0.2c-0.5,0-0.9-0.1-1.3-0.2c-0.4-0.1-0.7-0.3-1-0.6c-0.3-0.3-0.5-0.6-0.6-1c-0.1-0.4-0.2-0.9-0.2-1.5
			c0-0.6,0.1-1.1,0.2-1.5c0.1-0.4,0.3-0.7,0.6-1c0.3-0.3,0.6-0.4,1-0.6s0.8-0.2,1.3-0.2c0.5,0,0.9,0.1,1.3,0.2
			c0.4,0.1,0.7,0.3,1,0.6c0.3,0.3,0.5,0.6,0.6,1C45.4,17.6,45.5,18.1,45.5,18.6z M42.4,20.4c0.2,0,0.3,0,0.4-0.1
			c0.1-0.1,0.1-0.2,0.1-0.5v-2.4c0-0.2,0-0.4-0.1-0.5c-0.1-0.1-0.2-0.1-0.4-0.1c-0.2,0-0.3,0-0.4,0.1c-0.1,0.1-0.1,0.2-0.1,0.5v2.4
			c0,0.2,0,0.4,0.1,0.5C42.1,20.4,42.3,20.4,42.4,20.4z"/>
		<path fill="#00506E" d="M51.7,16.8H51v1.3h1.2v0.9H51v1.4h1v1.3h-3.8v-1.3h0.5v-3.6h-0.5v-1.3h4.9v2.1h-1.4V16.8z"/>
		<path fill="#00506E" d="M59,19.5c0,0.4-0.1,0.8-0.2,1.1c-0.1,0.3-0.3,0.5-0.5,0.7c-0.2,0.2-0.5,0.3-0.8,0.4
			c-0.3,0.1-0.7,0.1-1.1,0.1c-0.4,0-0.8,0-1.1-0.1c-0.3-0.1-0.6-0.2-0.8-0.4c-0.2-0.2-0.4-0.4-0.5-0.7c-0.1-0.3-0.2-0.7-0.2-1.1
			v-2.7h-0.5v-1.3h3v1.3h-0.3v3.1c0,0.2,0,0.3,0.1,0.4c0.1,0.1,0.2,0.1,0.3,0.1c0.2,0,0.3,0,0.3-0.1c0.1-0.1,0.1-0.2,0.1-0.4v-3.1
			h-0.3v-1.3h2.8v1.3H59V19.5z"/>
		<path fill="#00506E" d="M63.4,16.8h-1v1.3h0.7V19h-0.7v1.4h1v-1.3h1.8v2.6h-5.5v-1.3h0.5v-3.6h-0.5v-1.3h5.5V18h-1.8V16.8z"/>
		<path fill="#00506E" d="M65.6,15.5h3.5v1.3h-0.7v3.6h0.7v-0.7h1.6v2h-5v-1.3h0.5v-3.6h-0.5V15.5z"/>
	</g>
</g>
</svg>
