<?xml version="1.0" encoding="utf-8"?>
<!-- Generator: Adobe Illustrator 22.0.0, SVG Export Plug-In . SVG Version: 6.00 Build 0)  -->
<svg version="1.0" id="Layer_1" xmlns="http://www.w3.org/2000/svg" xmlns:xlink="http://www.w3.org/1999/xlink" x="0px" y="0px"
	 viewBox="0 0 100 100" enable-background="new 0 0 100 100" xml:space="preserve">
<g>
	<path fill="#D2EBEB" d="M77.9,40.5c3.8-17.6-9.7-34.2-27.7-34.2c-17.8,0-31.5,16.3-27.7,34.2c3.4,16.3,19.7,26.2,19.7,31.6l0,6h16
		v-6C58.1,66.7,74.5,56.8,77.9,40.5z"/>
	<path fill="#FFFFFF" d="M73.5,35.6c-0.6,0-1-0.4-1-1c0-12.3-10-22.3-22.3-22.3c-0.6,0-1-0.4-1-1c0-0.6,0.4-1,1-1
		c13.4,0,24.3,10.9,24.3,24.3C74.5,35.1,74,35.6,73.5,35.6z"/>
	<path fill="#969696" d="M58.1,89c0,1.1-0.9,2-2,2h-12c-1.1,0-2-0.9-2-2v-9.3h16V89z"/>
	<path fill="#505050" d="M55.1,92.8c-0.3,0.8-1,1.4-1.9,1.4h-6c-0.9,0-1.7-0.6-1.9-1.4L44.6,91h11L55.1,92.8z"/>
	<g>
		<rect x="42.1" y="88" fill="#B4B4B4" width="16" height="0.8"/>
		<rect x="42.1" y="85.5" fill="#B4B4B4" width="16" height="0.8"/>
		<rect x="42.1" y="82.9" fill="#B4B4B4" width="16" height="0.8"/>
	</g>
	<path fill="#78B400" d="M36.9,20.7C31,27.8,26.2,51.2,47.2,53c-2.5-5.6,0.1-10.5-1.5-17.9S36.9,20.7,36.9,20.7z"/>
	<path fill="#78B400" d="M55.2,20.7c2.2,3,3.5,13.2-4.6,17.2C48,34.5,48.5,24.7,55.2,20.7z"/>
	<path fill="#78B400" d="M65.9,33.4c-6.2,0.5-15.8,7.6-15.8,23.7C65.2,53.7,65.9,33.4,65.9,33.4z"/>
	<path fill="#469600" d="M37.2,26.8c0,0,0,0.6,0,1.7c0,0.5,0.1,1.2,0.2,1.9c0.1,0.7,0.2,1.6,0.4,2.5c0.2,0.9,0.4,1.9,0.7,2.9
		c0.3,1,0.7,2.1,1.1,3.1c0.2,0.5,0.4,1.1,0.7,1.6c0.2,0.5,0.5,1.1,0.7,1.6c0.5,1.1,1.1,2.2,1.7,3.3c1.2,2.1,2.5,4.2,3.9,6
		c0.7,0.9,1.3,1.8,1.9,2.8c0.5,0.9,0.9,1.9,1.2,2.8c0.6,1.8,0.9,3.4,1,4.5c0.1,0.6,0.1,1,0.1,1.3c0,0.3,0,0.5,0,0.5l-1-0.1
		c0,0,0-0.1,0-0.4c0-0.3,0-0.7,0-1.2c-0.1-1-0.3-2.5-0.8-4.3c-0.3-0.9-0.6-1.8-1.1-2.7c-0.2-0.5-0.5-0.9-0.8-1.4
		c-0.3-0.5-0.6-0.9-1-1.4c-1.3-1.9-2.6-4-3.8-6.2c-0.6-1.1-1.1-2.2-1.6-3.3c-0.2-0.6-0.5-1.1-0.7-1.7c-0.2-0.6-0.4-1.1-0.6-1.7
		c-0.4-1.1-0.7-2.2-1-3.2c-0.3-1-0.5-2-0.6-2.9c-0.2-0.9-0.2-1.8-0.3-2.5c-0.1-0.8-0.1-1.4-0.1-1.9C37.2,27.4,37.2,26.8,37.2,26.8z"
		/>
	<path fill="#469600" d="M60.6,41.2c0,0-0.4,0.5-1,1.2c-0.3,0.4-0.7,0.8-1.2,1.4c-0.5,0.5-1,1.1-1.5,1.8c-0.5,0.7-1.1,1.4-1.7,2.2
		c-0.6,0.8-1.1,1.7-1.6,2.6c-0.3,0.5-0.5,0.9-0.7,1.5c-0.2,0.5-0.5,1-0.6,1.5c-0.4,1-0.7,2.1-1,3.2c-0.3,1.1-0.4,2.2-0.5,3.3
		c0,1.1-0.1,2.2-0.1,3.3c0,2.2,0,4.2,0,5.9c0,3.5,0,5.8,0,5.8h-1c0,0,0-2.3,0-5.8c0-1.7,0-3.8,0-5.9c0-1.1,0.1-2.2,0.1-3.4
		c0.1-1.2,0.3-2.3,0.6-3.5c0.3-1.1,0.6-2.3,1.1-3.3c0.2-0.5,0.5-1.1,0.7-1.6c0.2-0.5,0.5-1,0.8-1.5c0.6-1,1.1-1.8,1.8-2.6
		c0.6-0.8,1.2-1.5,1.8-2.2c1.2-1.3,2.2-2.3,3-3C60.2,41.6,60.6,41.2,60.6,41.2z"/>
	<rect x="42.8" y="72.1" fill="#783200" width="14.5" height="4.8"/>
	<rect x="41.4" y="76.8" fill="#B4B4B4" width="17.5" height="4"/>
	<path opacity="0.2" fill="#FFFFFF" d="M53.2,94.3c0.9,0,1.7-0.6,1.9-1.4l0.6-1.8h0.5c1.1,0,2-0.9,2-2v-0.1V88v-1.7v-0.8v-1.7v-0.8
		v-2.1h0.8v-4h-0.8v-4.8c0-5.4,16.3-15.3,19.7-31.6c0-0.1,0-0.2,0.1-0.3c0.1-0.3,0.1-0.6,0.1-0.8c0-0.3,0.1-0.6,0.1-0.9
		c0-0.2,0.1-0.4,0.1-0.7c0-0.4,0.1-0.7,0.1-1.1c0-0.2,0-0.4,0-0.5c0-0.6,0.1-1.1,0.1-1.7c0-15.6-12.7-28.3-28.3-28.3v88H53.2z"/>
</g>
</svg>
