<?xml version="1.0" encoding="utf-8"?>
<!-- Generator: Adobe Illustrator 22.0.0, SVG Export Plug-In . SVG Version: 6.00 Build 0)  -->
<svg version="1.0" id="Layer_1" xmlns="http://www.w3.org/2000/svg" xmlns:xlink="http://www.w3.org/1999/xlink" x="0px" y="0px"
	 viewBox="0 0 100 100" enable-background="new 0 0 100 100" xml:space="preserve">
<g>
	<polygon fill="#006482" points="42.1,46.1 68.4,8 70.5,5 58.4,5 30.3,48 26,54.7 33.9,54.7 56.9,54.8 33.9,95.7 67.9,52.9 
		73.3,46.1 64.3,46.1 	"/>
	<path fill="#78B400" d="M40.9,6.8c3,2.6,20.8,8.9,13.8,24.8c-4.2-1.4-12.3-6.2-13.7-12.9C39.6,12.1,40.9,6.8,40.9,6.8z"/>
	<path fill="#78B400" d="M56.8,42.4c-0.3-14.2,13.2-8.5,16.5-8.9C71.9,40,64.9,47.1,56.8,42.4z"/>
	<path fill="#469600" d="M55.3,33.4c0,1.2-0.2,2.4-0.5,3.6c-0.3,1.1-0.7,2.3-1.2,3.3c-0.5,1-1.1,2-1.6,2.8c-0.6,0.9-1.2,1.6-1.8,2.3
		c-0.2,0.3-0.5,0.5-0.7,0.7H48c0.4-0.4,0.9-0.9,1.4-1.4c0.6-0.6,1.1-1.4,1.7-2.2c0.5-0.8,1.1-1.7,1.5-2.7c0.5-1,0.8-2,1.2-3.1
		c0.2-1.1,0.5-2.2,0.5-3.4c0-1.1,0-2.3-0.3-3.4c-0.1-0.3-0.1-0.6-0.2-0.9c-0.2-0.8-0.5-1.5-0.8-2.2c-0.4-1-1-1.9-1.5-2.8
		c-0.5-0.8-1.1-1.6-1.6-2.3c-0.5-0.6-0.9-1.2-1.3-1.7c-0.5-0.6-1-1.2-1.3-1.6c-0.7-0.8-1-1.3-1-1.3l0,0c0,0,0.4,0.4,1.1,1.2
		c0.4,0.4,0.8,0.9,1.4,1.5c0.5,0.5,1,1.1,1.5,1.7c0.6,0.7,1.2,1.4,1.8,2.3c0.6,0.9,1.2,1.8,1.7,2.8c0.3,0.5,0.5,1.1,0.8,1.7
		c0.2,0.5,0.4,1,0.5,1.6c0.2,0.6,0.3,1.1,0.4,1.8C55.3,32.2,55.4,32.8,55.3,33.4z"/>
	<path fill="#469600" d="M69.7,37.1c0,0-0.1,0.1-0.2,0.1c-0.1,0.1-0.3,0.3-0.6,0.4c-0.6,0.3-1.4,0.6-2.4,1c-2,0.7-4.7,1.5-7.2,2.8
		c-0.6,0.4-1.2,0.7-1.8,1.1c-0.3,0.2-0.6,0.4-0.8,0.6c-0.3,0.2-0.5,0.4-0.8,0.6c-0.5,0.4-0.9,0.9-1.3,1.3c-0.3,0.4-0.5,0.8-0.8,1.1
		l-1.2,0l0.1-0.3c0.3-0.4,0.7-1,1.1-1.4c0.5-0.4,0.9-1,1.4-1.4c0.5-0.4,1.1-0.9,1.7-1.2c0.6-0.4,1.3-0.7,1.9-1
		c2.6-1.2,5.4-1.9,7.4-2.4c1-0.3,1.9-0.5,2.4-0.8c0.3-0.1,0.5-0.2,0.6-0.3C69.6,37.1,69.7,37.1,69.7,37.1z"/>
</g>
</svg>
