<?xml version="1.0" encoding="utf-8"?>
<!-- Generator: Adobe Illustrator 22.0.0, SVG Export Plug-In . SVG Version: 6.00 Build 0)  -->
<svg version="1.0" id="Layer_1" xmlns="http://www.w3.org/2000/svg" xmlns:xlink="http://www.w3.org/1999/xlink" x="0px" y="0px"
	 viewBox="0 0 100 100" enable-background="new 0 0 100 100" xml:space="preserve">
<g>
	<polygon fill="#006482" points="81.8,81.4 5.6,81.4 11.1,34.4 76.3,34.4 	"/>
	<polygon opacity="0.2" fill="#FFFFFF" points="9.3,78.1 14,37.7 73.3,37.7 78,78.1 	"/>
	<g>
		<g>
			<rect x="43.1" y="37.7" fill="#006482" width="1.1" height="40.4"/>
			
				<rect x="53.8" y="37.7" transform="matrix(0.9992 -3.898234e-02 3.898234e-02 0.9992 -2.2167 2.1623)" fill="#006482" width="1.1" height="40.5"/>
			
				<rect x="64.5" y="37.6" transform="matrix(0.997 -7.776840e-02 7.776840e-02 0.997 -4.3077 5.2312)" fill="#006482" width="1.1" height="40.5"/>
		</g>
		<g>
			
				<rect x="12.8" y="57.4" transform="matrix(3.903982e-02 -0.9992 0.9992 3.903982e-02 -26.1715 88.6327)" fill="#006482" width="40.5" height="1.1"/>
			
				<rect x="2" y="57.4" transform="matrix(7.815756e-02 -0.9969 0.9969 7.815756e-02 -37.1668 75.6521)" fill="#006482" width="40.5" height="1.1"/>
		</g>
		<g>
			<rect x="13.1" y="45.2" fill="#006482" width="61.2" height="1.1"/>
			<rect x="12.1" y="53.3" fill="#006482" width="63.1" height="1.1"/>
			<rect x="11.2" y="61.4" fill="#006482" width="65" height="1.1"/>
			<rect x="10.2" y="69.5" fill="#006482" width="66.9" height="1.1"/>
		</g>
	</g>
	<rect x="37.7" y="81" fill="#414042" width="11.9" height="9.9"/>
	<rect x="34.3" y="88.5" fill="#505050" width="18.7" height="4.8"/>
	<polygon opacity="0.1" fill="#FFFFFF" points="81.8,81.4 76.3,34.4 43.7,34.4 43.7,93.3 53,93.3 53,88.5 49.6,88.5 49.6,81.4 	"/>
	<g>
		<circle fill="#FFDC00" cx="72.9" cy="28.3" r="10.7"/>
		<g>
			<path fill="#FFDC00" d="M72.9,15.8c0.9,0,1.8,0.1,2.6,0.3c0,0,0,0,0,0c-1.4-2.3-2.6-7.2-2.6-9.5c0,2.4-1.2,7.2-2.6,9.5
				c0,0,0,0,0,0C71.2,15.9,72,15.8,72.9,15.8z"/>
			<path fill="#FFDC00" d="M85.4,28.3c0,0.9-0.1,1.8-0.3,2.6c0,0,0,0,0,0c2.3-1.4,7.2-2.6,9.5-2.6c-2.4,0-7.2-1.2-9.5-2.6
				c0,0,0,0,0,0C85.3,26.5,85.4,27.4,85.4,28.3z"/>
			<path fill="#FFDC00" d="M72.9,40.7c-0.9,0-1.8-0.1-2.6-0.3c0,0,0,0,0,0c1.4,2.3,2.6,7.2,2.6,9.5c0-2.4,1.2-7.2,2.6-9.5
				c0,0,0,0,0,0C74.7,40.6,73.8,40.7,72.9,40.7z"/>
			<path fill="#FFDC00" d="M60.4,28.3c0-0.9,0.1-1.8,0.3-2.6c0,0,0,0,0,0c-2.3,1.4-7.2,2.6-9.5,2.6c2.4,0,7.2,1.2,9.5,2.6
				c0,0,0,0,0,0C60.5,30,60.4,29.2,60.4,28.3z"/>
			<path fill="#FFDC00" d="M64.1,19.5c0.6-0.6,1.3-1.2,2-1.6c0,0,0,0,0,0c-2.6-0.6-6.9-3.2-8.6-4.9c1.7,1.7,4.3,6,4.9,8.6
				c0,0,0,0,0,0C62.9,20.8,63.5,20.1,64.1,19.5z"/>
			<path fill="#FFDC00" d="M81.7,19.5c0.6,0.6,1.2,1.3,1.6,2c0,0,0,0,0,0c0.6-2.6,3.2-6.9,4.9-8.6c-1.7,1.7-6,4.3-8.6,4.9
				c0,0,0,0,0,0C80.4,18.3,81.1,18.8,81.7,19.5z"/>
			<path fill="#FFDC00" d="M81.7,37.1c-0.6,0.6-1.3,1.2-2,1.6c0,0,0,0,0,0c2.6,0.6,6.9,3.2,8.6,4.9c-1.7-1.7-4.3-6-4.9-8.6
				c0,0,0,0,0,0C82.9,35.8,82.4,36.5,81.7,37.1z"/>
			<path fill="#FFDC00" d="M64.1,37.1c-0.6-0.6-1.2-1.3-1.6-2c0,0,0,0,0,0c-0.6,2.6-3.2,6.9-4.9,8.6c1.7-1.7,6-4.3,8.6-4.9
				c0,0,0,0,0,0C65.4,38.3,64.7,37.7,64.1,37.1z"/>
		</g>
	</g>
</g>
</svg>
