<?xml version="1.0" encoding="utf-8"?>
<!-- Generator: Adobe Illustrator 22.0.0, SVG Export Plug-In . SVG Version: 6.00 Build 0)  -->
<svg version="1.0" id="Layer_1" xmlns="http://www.w3.org/2000/svg" xmlns:xlink="http://www.w3.org/1999/xlink" x="0px" y="0px"
	 viewBox="0 0 100 100" enable-background="new 0 0 100 100" xml:space="preserve">
<g>
	<g>
		<polygon fill="#006482" points="70,45.5 71.4,82 66.5,82 67.8,45.5 		"/>
		<path fill="#D2EBEB" d="M69.1,46.7c0,0,0.6,0,1.5,0.2c0.5,0.1,1,0.2,1.6,0.3c0.6,0.2,1.3,0.4,2,0.6c0.7,0.2,1.5,0.5,2.3,0.9
			c0.8,0.3,1.6,0.7,2.5,1.2c0.8,0.5,1.6,1.1,2.4,1.7c0.8,0.6,1.6,1.2,2.5,1.8c1.7,1.2,3.4,2.3,4.9,3.4c1.6,1.1,3,2.1,4.2,3
			c2.5,1.8,4.1,3.1,4.1,3.1l-0.2,0.4c0,0-1.9-0.8-4.7-2c-1.4-0.6-3-1.3-4.8-2.1c-1.7-0.8-3.6-1.7-5.4-2.6c-0.9-0.4-1.8-0.8-2.8-1.2
			c-0.9-0.4-1.8-0.8-2.7-1.3c-0.8-0.5-1.6-1-2.3-1.5c-0.7-0.5-1.4-1-1.9-1.6c-0.6-0.5-1.1-1-1.5-1.5c-0.5-0.5-0.8-0.9-1.1-1.3
			c-0.6-0.7-0.9-1.2-0.9-1.2L69.1,46.7z"/>
		<path fill="#D2EBEB" d="M69,47.1c0,0-0.3,0.5-0.9,1.2c-0.3,0.4-0.7,0.8-1.1,1.3c-0.4,0.5-1,1-1.5,1.5c-0.6,0.5-1.2,1-1.9,1.6
			c-0.7,0.5-1.5,1-2.3,1.5c-0.8,0.5-1.7,0.9-2.7,1.3c-0.9,0.4-1.9,0.8-2.8,1.2c-1.8,0.9-3.7,1.8-5.4,2.6c-1.7,0.8-3.4,1.5-4.8,2.1
			c-2.8,1.2-4.7,2-4.7,2l-0.2-0.4c0,0,1.6-1.2,4.1-3.1c1.2-0.9,2.7-2,4.2-3c1.5-1.1,3.2-2.2,4.9-3.4c0.8-0.6,1.7-1.2,2.5-1.8
			c0.8-0.6,1.6-1.2,2.4-1.7c0.8-0.5,1.6-0.9,2.5-1.2c0.8-0.3,1.6-0.6,2.3-0.9c0.7-0.3,1.4-0.4,2-0.6c0.6-0.2,1.2-0.3,1.6-0.3
			c0.9-0.2,1.5-0.2,1.5-0.2L69,47.1z"/>
		<path fill="#D2EBEB" d="M68.7,46.9c0,0-0.3-0.5-0.6-1.4c-0.2-0.4-0.4-1-0.5-1.6c-0.2-0.6-0.4-1.3-0.5-2.1
			c-0.2-0.8-0.3-1.6-0.4-2.5c-0.1-0.9-0.2-1.8-0.2-2.7c0-1,0.1-1.9,0.2-2.9c0.1-1,0.2-2,0.3-3c0.2-2,0.3-4.1,0.5-6
			c0.2-1.9,0.4-3.7,0.5-5.2c0.3-3,0.6-5.1,0.6-5.1h0.5c0,0,0.3,2,0.6,5.1c0.2,1.5,0.3,3.3,0.5,5.2c0.2,1.9,0.3,3.9,0.5,6
			c0.1,1,0.2,2,0.3,3c0.1,1,0.2,2,0.2,2.9c0,0.9-0.1,1.9-0.2,2.7c-0.1,0.9-0.2,1.7-0.4,2.5c-0.1,0.8-0.3,1.5-0.5,2.1
			c-0.2,0.6-0.4,1.2-0.5,1.6c-0.3,0.9-0.6,1.4-0.6,1.4H68.7z"/>
		<path opacity="0.2" fill="#FFFFFF" d="M70.8,30.7c-0.2-2-0.3-4.1-0.5-6c-0.2-1.9-0.4-3.7-0.5-5.2c-0.3-3-0.6-5.1-0.6-5.1H69v32.4
			h0.1c0,0,0.3-0.5,0.6-1.4c0.2-0.4,0.4-1,0.5-1.6c0.2-0.6,0.4-1.3,0.5-2.1c0.2-0.8,0.3-1.6,0.4-2.5c0.1-0.9,0.2-1.8,0.2-2.7
			c0-1-0.1-1.9-0.2-2.9C71,32.7,70.8,31.7,70.8,30.7z"/>
		<path opacity="0.2" fill="#FFFFFF" d="M53.9,53.4c-1.7,1.1-3.4,2.3-4.9,3.4c-1.6,1.1-3,2.1-4.2,3c-2.5,1.8-4.1,3-4.1,3l0.1,0.1
			l28.1-16.2l0-0.1c0,0-0.6,0-1.5,0.2c-0.5,0.1-1,0.2-1.6,0.3c-0.6,0.2-1.3,0.4-2,0.6c-0.7,0.2-1.5,0.5-2.3,0.9
			c-0.8,0.3-1.6,0.7-2.5,1.2c-0.8,0.5-1.6,1.1-2.4,1.7C55.6,52.2,54.8,52.8,53.9,53.4z"/>
		<polygon opacity="0.2" fill="#FFFFFF" points="71.4,82 70,45.5 68.8,45.5 68.8,82 		"/>
		<path opacity="0.2" fill="#FFFFFF" d="M83.8,53.4c1.7,1.1,3.4,2.3,4.9,3.4c1.6,1.1,3,2.1,4.2,3c2.5,1.8,4.1,3,4.1,3L97,63
			L68.9,46.8l0-0.1c0,0,0.6,0,1.5,0.2c0.5,0.1,1,0.2,1.6,0.3c0.6,0.2,1.3,0.4,2,0.6c0.7,0.2,1.5,0.5,2.3,0.9
			c0.8,0.3,1.6,0.7,2.5,1.2c0.8,0.5,1.6,1.1,2.4,1.7C82.2,52.2,83,52.8,83.8,53.4z"/>
		<path fill="#78B400" d="M72.5,46.9c0,2-1.6,3.6-3.6,3.6c-2,0-3.6-1.6-3.6-3.6c0-2,1.6-3.6,3.6-3.6C70.9,43.3,72.5,44.9,72.5,46.9z
			"/>
		<rect x="63.8" y="80.6" fill="#414042" width="10.2" height="2.8"/>
		<path opacity="0.2" fill="#FFFFFF" d="M71.5,46.9c0,1.4-1.1,2.5-2.5,2.5c-1.4,0-2.6-1.1-2.6-2.5c0-1.4,1.1-2.5,2.6-2.5
			C70.3,44.3,71.5,45.5,71.5,46.9z"/>
	</g>
	<g>
		<polygon fill="#006482" points="43.3,45 45.2,96.3 38.3,96.3 40.3,45 		"/>
		<path fill="#D2EBEB" d="M42,46.7c0,0,0.8,0,2.1,0.3c0.7,0.1,1.4,0.3,2.3,0.5c0.9,0.2,1.8,0.5,2.9,0.8c1,0.3,2.1,0.8,3.3,1.3
			c1.1,0.5,2.3,1,3.5,1.7c1.1,0.7,2.3,1.5,3.4,2.4c1.1,0.9,2.3,1.7,3.5,2.5c2.4,1.6,4.7,3.2,6.9,4.8c2.2,1.5,4.2,3,6,4.3
			c3.5,2.5,5.7,4.3,5.7,4.3L81.2,70c0,0-2.7-1.1-6.6-2.8c-2-0.9-4.3-1.9-6.7-3c-2.5-1.1-5-2.4-7.6-3.6c-1.3-0.6-2.6-1.2-3.9-1.7
			c-1.3-0.6-2.6-1.1-3.7-1.8c-1.2-0.7-2.2-1.4-3.2-2.1c-1-0.7-1.9-1.5-2.7-2.2c-0.8-0.7-1.5-1.4-2.2-2.1c-0.6-0.6-1.2-1.3-1.6-1.8
			c-0.8-1-1.3-1.7-1.3-1.7L42,46.7z"/>
		<path fill="#D2EBEB" d="M42,47.2c0,0-0.4,0.7-1.3,1.7c-0.4,0.5-0.9,1.1-1.6,1.8c-0.6,0.6-1.4,1.4-2.2,2.1
			c-0.8,0.7-1.7,1.5-2.7,2.2c-1,0.7-2.1,1.5-3.2,2.1c-1.2,0.7-2.4,1.2-3.7,1.8c-1.3,0.6-2.6,1.1-3.9,1.7c-2.6,1.2-5.1,2.5-7.6,3.6
			c-2.4,1.1-4.7,2.1-6.7,3C5.1,68.9,2.5,70,2.5,70l-0.3-0.6c0,0,2.3-1.8,5.7-4.3c1.7-1.3,3.8-2.7,6-4.3c2.2-1.6,4.6-3.2,6.9-4.8
			c1.2-0.8,2.3-1.7,3.5-2.5c1.1-0.9,2.2-1.7,3.4-2.4c1.2-0.7,2.3-1.2,3.5-1.7c1.1-0.5,2.2-0.9,3.3-1.3c1-0.4,2-0.6,2.9-0.8
			c0.9-0.2,1.7-0.4,2.3-0.5c1.3-0.2,2.1-0.3,2.1-0.3L42,47.2z"/>
		<path fill="#D2EBEB" d="M41.4,46.9c0,0-0.4-0.7-0.8-2c-0.2-0.6-0.5-1.4-0.7-2.3c-0.2-0.9-0.5-1.8-0.7-2.9
			c-0.2-1.1-0.4-2.2-0.5-3.5c-0.2-1.2-0.2-2.5-0.2-3.9c0-1.3,0.2-2.7,0.4-4.1c0.2-1.4,0.3-2.8,0.5-4.3c0.2-2.9,0.4-5.7,0.7-8.4
			c0.2-2.7,0.5-5.2,0.7-7.3c0.5-4.3,0.9-7.1,0.9-7.1l0.6,0c0,0,0.4,2.9,0.8,7.1c0.2,2.1,0.5,4.6,0.7,7.3c0.3,2.7,0.5,5.5,0.7,8.4
			c0.1,1.4,0.3,2.9,0.4,4.3c0.2,1.4,0.3,2.8,0.3,4.1c0,1.3-0.1,2.6-0.2,3.9c-0.1,1.2-0.3,2.4-0.6,3.5c-0.2,1.1-0.5,2-0.7,2.9
			c-0.2,0.9-0.5,1.6-0.7,2.2c-0.5,1.2-0.8,2-0.8,2L41.4,46.9z"/>
		<path opacity="0.2" fill="#FFFFFF" d="M44.4,24.1c-0.2-2.8-0.4-5.7-0.7-8.4c-0.2-2.7-0.5-5.2-0.7-7.3c-0.5-4.3-0.8-7.1-0.8-7.1
			l-0.2,0v45.6h0.1c0,0,0.4-0.7,0.8-2c0.2-0.6,0.5-1.4,0.7-2.2c0.2-0.9,0.5-1.8,0.7-2.9c0.2-1.1,0.4-2.2,0.6-3.5
			c0.2-1.2,0.2-2.5,0.2-3.9c0-1.3-0.2-2.7-0.3-4.1C44.7,27,44.5,25.6,44.4,24.1z"/>
		<path opacity="0.2" fill="#FFFFFF" d="M20.7,56.1c-2.4,1.6-4.7,3.2-6.9,4.8c-2.2,1.5-4.2,3-6,4.3c-3.5,2.5-5.8,4.3-5.8,4.3
			l0.1,0.2l39.5-22.8l-0.1-0.1c0,0-0.8,0-2.1,0.2c-0.7,0.1-1.4,0.3-2.3,0.5c-0.9,0.2-1.8,0.5-2.9,0.8c-1,0.3-2.1,0.8-3.3,1.2
			c-1.1,0.5-2.3,1-3.5,1.7c-1.1,0.7-2.3,1.5-3.4,2.3C23.1,54.4,21.9,55.2,20.7,56.1z"/>
		<polygon opacity="0.2" fill="#FFFFFF" points="45.2,96.3 43.3,45 41.7,45 41.7,96.3 		"/>
		<path opacity="0.2" fill="#FFFFFF" d="M62.8,56.1c2.4,1.6,4.7,3.2,6.9,4.8c2.2,1.5,4.2,3,6,4.3c3.5,2.5,5.8,4.3,5.8,4.3l-0.1,0.2
			L41.8,46.8l0.1-0.1c0,0,0.8,0,2.1,0.2c0.7,0.1,1.4,0.3,2.3,0.5c0.9,0.2,1.8,0.5,2.9,0.8c1,0.3,2.1,0.8,3.3,1.2
			c1.1,0.5,2.3,1,3.5,1.7c1.1,0.7,2.3,1.5,3.4,2.3C60.4,54.4,61.6,55.2,62.8,56.1z"/>
		<path fill="#78B400" d="M46.8,46.9c0,2.8-2.3,5.1-5.1,5.1c-2.8,0-5.1-2.3-5.1-5.1c0-2.8,2.3-5.1,5.1-5.1
			C44.6,41.9,46.8,44.2,46.8,46.9z"/>
		<rect x="34.6" y="94.4" fill="#414042" width="14.3" height="3.9"/>
		<path opacity="0.2" fill="#FFFFFF" d="M45.4,46.9c0,2-1.6,3.6-3.6,3.6c-2,0-3.6-1.6-3.6-3.6c0-2,1.6-3.6,3.6-3.6
			C43.8,43.4,45.4,45,45.4,46.9z"/>
	</g>
</g>
</svg>
